<?xml version="1.0" standalone="no"?>
<!DOCTYPE svg PUBLIC "-//W3C//DTD SVG 20010904//EN"
 "http://www.w3.org/TR/2001/REC-SVG-20010904/DTD/svg10.dtd">
<svg version="1.0" xmlns="http://www.w3.org/2000/svg"
 width="700.000000pt" height="700.000000pt" viewBox="0 0 700.000000 700.000000"
 preserveAspectRatio="xMidYMid meet">
<metadata>
Created by potrace 1.14, written by Peter Selinger 2001-2017
</metadata>
<g transform="translate(0.000000,700.000000) scale(0.100000,-0.100000)"
fill="#000000" stroke="none">
<path d="M3278 6995 c-1 -1 -41 -5 -88 -9 -47 -4 -96 -8 -110 -10 -14 -2 -46
-7 -71 -10 -25 -4 -57 -9 -70 -11 -13 -2 -42 -6 -63 -10 -141 -21 -478 -113
-601 -165 -11 -4 -49 -19 -85 -33 -36 -14 -86 -34 -113 -46 -26 -11 -51 -21
-55 -22 -4 -1 -19 -10 -34 -20 -14 -10 -30 -19 -36 -19 -16 0 -211 -109 -333
-186 -354 -224 -690 -538 -932 -869 -36 -49 -74 -101 -85 -115 -78 -103 -242
-407 -326 -603 -122 -286 -226 -679 -252 -952 -2 -22 -7 -76 -11 -120 -10
-100 -10 -496 0 -590 4 -38 10 -99 13 -135 5 -54 41 -263 57 -335 127 -554
371 -1049 728 -1480 94 -113 291 -314 389 -396 35 -30 71 -60 79 -68 8 -7 49
-39 90 -70 42 -31 78 -59 81 -62 5 -6 198 -133 241 -158 13 -8 56 -32 94 -53
39 -21 77 -43 85 -48 35 -21 267 -130 285 -134 6 -1 28 -10 50 -20 53 -23 378
-128 435 -140 14 -3 66 -15 115 -26 50 -11 106 -23 125 -26 19 -3 46 -7 59 -9
13 -2 45 -7 70 -11 25 -3 57 -8 71 -10 163 -25 682 -25 842 1 13 2 45 6 72 10
425 54 918 227 1306 460 95 57 284 185 335 227 170 139 229 191 335 298 137
137 201 209 306 345 305 395 541 901 639 1368 2 10 6 26 9 35 3 9 7 33 10 52
3 19 8 46 11 60 2 13 7 42 10 65 3 22 8 47 10 55 2 8 7 47 10 85 4 39 10 102
15 140 8 77 6 581 -3 605 -3 8 -8 42 -12 75 -7 81 -17 147 -40 270 -69 370
-227 782 -431 1125 -64 107 -107 170 -219 325 -107 148 -369 421 -540 564
-161 134 -373 280 -540 372 -100 54 -295 149 -308 149 -7 0 -17 4 -22 9 -17
16 -276 109 -408 146 -127 36 -309 76 -400 90 -27 3 -58 8 -70 11 -12 2 -49 6
-83 10 -33 3 -74 8 -90 10 -33 5 -540 14 -546 9z m481 -2895 c3 -3 22 -25 42
-50 129 -159 318 -339 500 -477 l66 -50 -88 -67 c-49 -37 -110 -86 -136 -109
-69 -59 -282 -275 -323 -326 -19 -24 -40 -49 -46 -55 -6 -6 -32 -40 -58 -76
-27 -36 -51 -63 -55 -61 -3 2 -25 29 -49 60 -160 209 -319 372 -514 527 -68
53 -126 100 -131 104 -4 3 14 22 40 40 204 145 450 389 610 607 l46 61 45 -61
c25 -34 48 -64 51 -67z"/>
</g>
</svg>
